<?xml version="1.0" encoding="UTF-8" standalone="no" ?>
<!DOCTYPE svg PUBLIC "-//W3C//DTD SVG 1.1//EN" "http://www.w3.org/Graphics/SVG/1.1/DTD/svg11.dtd">
<svg xmlns="http://www.w3.org/2000/svg" xmlns:xlink="http://www.w3.org/1999/xlink" version="1.1" width="1080" height="1080" viewBox="0 0 1080 1080" xml:space="preserve">
<desc>Created with Fabric.js 5.2.4</desc>
<defs>
</defs>
<rect x="0" y="0" width="100%" height="100%" fill="transparent"></rect>
<g transform="matrix(1 0 0 1 540 540)" id="4f0a97d8-7319-4222-ad4b-4b7cf5bdd1f2"  >
<rect style="stroke: none; stroke-width: 1; stroke-dasharray: none; stroke-linecap: butt; stroke-dashoffset: 0; stroke-linejoin: miter; stroke-miterlimit: 4; fill: rgb(255,255,255); fill-rule: nonzero; opacity: 1; visibility: hidden;" vector-effect="non-scaling-stroke"  x="-540" y="-540" rx="0" ry="0" width="1080" height="1080" />
</g>
<g transform="matrix(1 0 0 1 540 540)" id="c8e4b7d2-0131-4726-9de2-e209c881ebf1"  >
</g>
<g transform="matrix(7.84 0 0 7.84 564.21 540)"  >
<g style="" vector-effect="non-scaling-stroke"   >
		<g transform="matrix(1 0 0 1 -23.25 41.59)"  >
<path style="stroke: none; stroke-width: 1; stroke-dasharray: none; stroke-linecap: butt; stroke-dashoffset: 0; stroke-linejoin: miter; stroke-miterlimit: 4; fill: rgb(38,38,38); fill-rule: evenodd; opacity: 1;" vector-effect="non-scaling-stroke"  transform=" translate(-26.91, -103.03)" d="M 53.81 119.82 C 49.39 120.49 44.57 120.85 39.53 120.85 C 17.900000000000002 120.85 0.37000000000000455 114.11999999999999 0.37000000000000455 105.81 C 0.37000000000000455 104.18 1.0500000000000047 102.61 2.3000000000000043 101.15 L 2.3000000000000043 93 C 0.81 91.37 0 89.14 0 87.79 C 0 86.44000000000001 0.19 86.06 0.54 85.22000000000001 C 0.91 85.60000000000001 1.32 85.98000000000002 1.76 86.33000000000001 C 8.02 91.39000000000001 22.110000000000003 94.55000000000001 36.75 95.00000000000001 C 39.71 95.09000000000002 42.69 95.07000000000001 45.65 94.94000000000001 C 45.42 96.15 45.3 97.34000000000002 45.3 98.55000000000001 C 45.3 102.77000000000001 46.089999999999996 106.77000000000001 47.669999999999995 110.53000000000002 C 49.1 113.92 51.14 117.02 53.81 119.82 L 53.81 119.82 z" stroke-linecap="round" />
</g>
		<g transform="matrix(1 0 0 1 -10.63 4.84)"  >
<path style="stroke: none; stroke-width: 1; stroke-dasharray: none; stroke-linecap: butt; stroke-dashoffset: 0; stroke-linejoin: miter; stroke-miterlimit: 4; fill: rgb(38,38,38); fill-rule: evenodd; opacity: 1;" vector-effect="non-scaling-stroke"  transform=" translate(-39.52, -66.28)" d="M 78.38 40.3 C 78.77 41.12 79 41.66 79.03999999999999 42.739999999999995 C 78.8 42.66 78.55999999999999 42.589999999999996 78.30999999999999 42.529999999999994 C 77.44999999999999 42.32999999999999 76.58999999999999 42.309999999999995 75.75999999999999 42.42999999999999 C 76.72 41.76 77.59 41.05 78.38 40.3 L 78.38 40.3 L 78.38 40.3 z M 46.38 92.1 C 43.230000000000004 92.27 40.02 92.3 36.84 92.19999999999999 C 22.760000000000005 91.76999999999998 9.320000000000004 88.83999999999999 3.5500000000000043 84.16 C 2.990000000000004 83.71 2.520000000000004 83.25 2.1300000000000043 82.78 C 2.1900000000000044 82.71000000000001 2.240000000000004 82.65 2.3000000000000043 82.59 L 2.3000000000000043 48.36 C 0.81 46.74 0 44.52 0 43.15 C 0 41.779999999999994 0.2 41.36 0.58 40.489999999999995 C 0.94 40.85999999999999 1.3399999999999999 41.21999999999999 1.7599999999999998 41.559999999999995 C 8.02 46.629999999999995 22.11 49.779999999999994 36.75 50.23 C 49.38 50.62 62.489999999999995 49 71.41 44.87 C 70.75 45.68 70.25 46.64 70 47.73 C 67.88 56.94 61.86 65.92 56.54 73.86 C 52.18 80.38 48.21 86.31 46.38 92.1 L 46.38 92.1 z" stroke-linecap="round" />
</g>
		<g transform="matrix(1 0 0 1 -10.71 -37.7)"  >
<path style="stroke: none; stroke-width: 1; stroke-dasharray: none; stroke-linecap: butt; stroke-dashoffset: 0; stroke-linejoin: miter; stroke-miterlimit: 4; fill: rgb(38,38,38); fill-rule: evenodd; opacity: 1;" vector-effect="non-scaling-stroke"  transform=" translate(-39.44, -23.74)" d="M 39.44 0 C 49.92 0 59.459999999999994 1.61 66.41 4.22 C 73.94 7.039999999999999 78.6 11.14 78.6 15.84 C 78.6 17.52 78 19.13 76.89 20.62 L 76.89 37.790000000000006 C 76.01 38.730000000000004 74.95 39.59 73.74 40.39000000000001 C 65.58999999999999 45.77000000000001 50.94 47.86000000000001 36.83 47.43000000000001 C 22.759999999999998 47.00000000000001 9.319999999999997 44.07000000000001 3.549999999999997 39.39000000000001 C 3.019999999999997 38.96000000000001 2.559999999999997 38.52000000000001 2.179999999999997 38.07000000000001 L 2.299999999999997 37.940000000000005 L 2.299999999999997 21.01 C 0.9899999999999971 19.41 0.27999999999999714 17.67 0.27999999999999714 15.840000000000002 C 0.27999999999999714 11.14 4.939999999999998 7.0500000000000025 12.469999999999997 4.220000000000002 C 19.42 1.61 28.96 0 39.44 0 L 39.44 0 z" stroke-linecap="round" />
</g>
		<g transform="matrix(1 0 0 1 26.69 24.64)"  >
<path style="stroke: none; stroke-width: 1; stroke-dasharray: none; stroke-linecap: butt; stroke-dashoffset: 0; stroke-linejoin: miter; stroke-miterlimit: 4; fill: rgb(222,156,45); fill-rule: evenodd; opacity: 1;" vector-effect="non-scaling-stroke"  transform=" translate(-76.84, -86.08)" d="M 76.76 49.28 C 79.56 61.31 89.39 72.89 95.64 84.1 C 106.24 103.11 98.26 122.88 76.76 122.88 C 53.32000000000001 122.88 47.580000000000005 101.41999999999999 59.220000000000006 81.83 C 65.46 71.32 74.18 60.48 76.76 49.28 L 76.76 49.28 L 76.76 49.28 z M 60.52 94.94 C 60.39 93.58 61.410000000000004 92.37 62.77 92.24 C 64.13 92.10999999999999 65.34 93.13 65.47 94.5 C 65.78999999999999 97.8 66.51 100.86 67.9 103.47 C 69.24000000000001 106 71.22 108.19 74.09 109.87 C 78.76 112.63000000000001 70.9 119.96000000000001 63.5 105.79 C 61.79 102.55 60.9 98.87 60.52 94.94 L 60.52 94.94 L 60.52 94.94 z" stroke-linecap="round" />
</g>
		<g transform="matrix(1 0 0 1 -29.72 -45.39)"  >
<path style="stroke: none; stroke-width: 1; stroke-dasharray: none; stroke-linecap: butt; stroke-dashoffset: 0; stroke-linejoin: miter; stroke-miterlimit: 4; fill: rgb(0,0,0); fill-rule: evenodd; opacity: 1;" vector-effect="non-scaling-stroke"  transform=" translate(-20.43, -16.05)" d="M 20.43 14.38 C 23.08 14.38 25.22 15.13 25.22 16.05 C 25.22 16.97 23.08 17.72 20.43 17.72 C 17.78 17.72 15.64 16.97 15.64 16.049999999999997 C 15.64 15.14 17.78 14.38 20.43 14.38 L 20.43 14.38 z" stroke-linecap="round" />
</g>
		<g transform="matrix(1 0 0 1 -10.71 -45.59)"  >
<path style="stroke: none; stroke-width: 1; stroke-dasharray: none; stroke-linecap: butt; stroke-dashoffset: 0; stroke-linejoin: miter; stroke-miterlimit: 4; fill: rgb(255,255,255); fill-rule: evenodd; opacity: 1;" vector-effect="non-scaling-stroke"  transform=" translate(-39.44, -15.85)" d="M 64.68 7.88 C 58.27000000000001 5.47 49.35000000000001 3.9899999999999998 39.44000000000001 3.9899999999999998 C 29.540000000000013 3.9899999999999998 20.62000000000001 5.4799999999999995 14.200000000000014 7.88 C 8.370000000000013 10.06 4.760000000000014 12.899999999999999 4.760000000000014 15.84 C 4.760000000000014 18.79 8.370000000000013 21.61 14.200000000000014 23.8 C 20.610000000000014 26.2 29.530000000000015 27.7 39.44000000000001 27.7 C 49.34000000000001 27.7 58.27000000000001 26.21 64.68 23.8 C 70.51 21.62 74.12 18.78 74.12 15.84 C 74.12 12.89 70.51 10.06 64.68 7.88 L 64.68 7.88 L 64.68 7.88 z" stroke-linecap="round" />
</g>
		<g transform="matrix(1 0 0 1 -29.72 -45.39)"  >
<path style="stroke: none; stroke-width: 1; stroke-dasharray: none; stroke-linecap: butt; stroke-dashoffset: 0; stroke-linejoin: miter; stroke-miterlimit: 4; fill: rgb(38,38,38); fill-rule: evenodd; opacity: 1;" vector-effect="non-scaling-stroke"  transform=" translate(-20.43, -16.05)" d="M 20.43 12.51 C 24.78 12.51 28.3 14.09 28.3 16.05 C 28.3 18.01 24.78 19.59 20.43 19.59 C 16.08 19.59 12.559999999999999 18.009999999999998 12.559999999999999 16.05 C 12.559999999999999 14.090000000000003 16.08 12.51 20.43 12.51 L 20.43 12.51 z" stroke-linecap="round" />
</g>
</g>
</g>
</svg>