<?xml version="1.0" encoding="UTF-8" standalone="no" ?>
<!DOCTYPE svg PUBLIC "-//W3C//DTD SVG 1.1//EN" "http://www.w3.org/Graphics/SVG/1.1/DTD/svg11.dtd">
<svg xmlns="http://www.w3.org/2000/svg" xmlns:xlink="http://www.w3.org/1999/xlink" version="1.1" width="1080" height="1080" viewBox="0 0 1080 1080" xml:space="preserve">
<desc>Created with Fabric.js 5.2.4</desc>
<defs>
</defs>
<g transform="matrix(1 0 0 1 540 540)" id="4f0a97d8-7319-4222-ad4b-4b7cf5bdd1f2"  >
<rect style="stroke: none; stroke-width: 1; stroke-dasharray: none; stroke-linecap: butt; stroke-dashoffset: 0; stroke-linejoin: miter; stroke-miterlimit: 4; fill: rgb(255,255,255); fill-rule: nonzero; opacity: 1; visibility: hidden;" vector-effect="non-scaling-stroke"  x="-540" y="-540" rx="0" ry="0" width="1080" height="1080" />
</g>
<g transform="matrix(1 0 0 1 540 540)" id="c8e4b7d2-0131-4726-9de2-e209c881ebf1"  >
</g>
<g transform="matrix(1 0 0 1 540 540)" id="092945fd-059c-4911-835f-280025eb1970"  >
<path style="stroke: rgb(0,0,0); stroke-width: 0; stroke-dasharray: none; stroke-linecap: butt; stroke-dashoffset: 0; stroke-linejoin: miter; stroke-miterlimit: 4; fill: rgb(255,255,255); fill-rule: nonzero; opacity: 1;" vector-effect="non-scaling-stroke"  transform=" translate(-512.01, -511.98)" d="M 383.297 469.825 L 300.02700000000004 386.555 L 360.6 204.87 C 390.87 114.024 390.87 83.75 512.013 83.75 C 633.1560000000001 83.75 633.13 114.025 663.43 204.87 L 724 386.556 L 640.73 469.82599999999996 C 607.85 436.943 562.2 416.82899999999995 512.04 416.82899999999995 C 461.8799999999999 416.82899999999995 416.17999999999995 436.94199999999995 383.298 469.82399999999996 z M 633.13 598.515 C 633.13 665.42 578.892 719.633 512.013 719.633 C 445.10900000000004 719.633 390.896 665.395 390.896 598.5160000000001 C 390.896 531.6120000000001 445.134 477.39900000000006 512.013 477.39900000000006 C 578.892 477.39900000000006 633.13 531.61 633.13 598.515 z M 687.8 551.3969999999999 L 801.544 520.9209999999999 L 928.614 664.2049999999999 C 992.149 735.847 1018.369 750.9949999999999 957.798 855.8749999999999 C 897.228 960.7779999999999 871.008 945.6289999999999 777.2 926.4249999999998 L 589.584 888.02 L 559.108 774.275 C 604.0229999999999 762.242 644.252 732.78 669.358 689.308 C 694.438 645.888 699.833 596.311 687.798 551.396 z M 464.894 774.3 L 434.42 888.047 L 246.802 926.45 C 152.99399999999997 945.653 126.77499999999999 960.777 66.20399999999998 855.9000000000001 C 5.635 750.994 31.88 735.87 95.39 664.23 L 222.45999999999998 520.947 L 336.20399999999995 551.423 C 324.17099999999994 596.338 329.56699999999995 645.915 354.67199999999997 689.361 C 379.75199999999995 732.808 419.97999999999996 762.295 464.89599999999996 774.303 z" stroke-linecap="round" />
</g>
</svg>